<svg xmlns="http://www.w3.org/2000/svg" width="1200" height="780" viewBox="0 0 1200 780" role="img" aria-labelledby="t2"><title id="t2">소규모 사업자를 위한 CRM 자동화 실전 활용 가이드: 효율적인 도입 전략 및 단계별 실행 핵심 요약</title><rect width="1200" height="780" rx="28" fill="#f7f7f5"/><text x="60" y="72" font-family="system-ui,sans-serif" font-size="34" font-weight="850" fill="#111111">핵심 요약</text><text x="60" y="112" font-family="system-ui,sans-serif" font-size="19" fill="#666666">본문의 검증된 내용을 빠르게 훑기 위한 자동 생성 인포그래픽</text><rect x="60" y="150" width="1080" height="120" rx="20" fill="#ffffff" stroke="#d9d9d6"/><rect x="86" y="174" width="48" height="48" rx="14" fill="#111111"/><text x="100" y="207" font-family="system-ui,sans-serif" font-size="18" font-weight="800" fill="#ffffff">01</text><text x="158" y="193" font-family="system-ui,sans-serif" font-size="26" font-weight="800" fill="#111111">소규모 사업자를 위한 CRM 자동화 도입 전략: 핵심 고려</text><text x="158" y="232" font-family="system-ui,sans-serif" font-size="20" fill="#555555">**고객 수 및 영업 규모:** 고객 수가 적고 영업 활동이 단순하다면, 기본적인 기능만 제공하는 CRM</text><rect x="60" y="300" width="1080" height="120" rx="20" fill="#ffffff" stroke="#d9d9d6"/><rect x="86" y="324" width="48" height="48" rx="14" fill="#111111"/><text x="100" y="357" font-family="system-ui,sans-serif" font-size="18" font-weight="800" fill="#ffffff">02</text><text x="158" y="343" font-family="system-ui,sans-serif" font-size="26" font-weight="800" fill="#111111">소규모 사업자를 위한 CRM 자동화 솔루션 추천 (2026</text><text x="158" y="382" font-family="system-ui,sans-serif" font-size="20" fill="#555555">**HubSpot CRM:** 무료 계정으로 최대 100만 고객을 관리할 수 있으며, 소규모 사업자에게 </text><rect x="60" y="450" width="1080" height="120" rx="20" fill="#ffffff" stroke="#d9d9d6"/><rect x="86" y="474" width="48" height="48" rx="14" fill="#111111"/><text x="100" y="507" font-family="system-ui,sans-serif" font-size="18" font-weight="800" fill="#ffffff">03</text><text x="158" y="493" font-family="system-ui,sans-serif" font-size="26" font-weight="800" fill="#111111">CRM 자동화 도입 단계별 실행 계획</text><text x="158" y="532" font-family="system-ui,sans-serif" font-size="20" fill="#555555">**1단계: 목표 설정:** CRM 자동화를 통해 달성하고자 하는 목표를 명확하게 설정합니다. (예: 영</text><rect x="60" y="600" width="1080" height="120" rx="20" fill="#ffffff" stroke="#d9d9d6"/><rect x="86" y="624" width="48" height="48" rx="14" fill="#111111"/><text x="100" y="657" font-family="system-ui,sans-serif" font-size="18" font-weight="800" fill="#ffffff">04</text><text x="158" y="643" font-family="system-ui,sans-serif" font-size="26" font-weight="800" fill="#111111">CRM 자동화 도입 시 주의 사항</text><text x="158" y="682" font-family="system-ui,sans-serif" font-size="20" fill="#555555">**데이터 보안:** 고객 데이터를 안전하게 보호하기 위한 보안 조치를 마련합니다.</text><text x="60" y="748" font-family="system-ui,sans-serif" font-size="16" fill="#8a8a86">Practical AI &amp; Automation · final fact-checked article</text></svg>